<svg xmlns="http://www.w3.org/2000/svg" width="200" height="200" viewBox="0 0 200 200" role="img" aria-label="JADE 05_mobile_apps origami service icon"><defs>
<linearGradient id="g" x1="0" y1="0" x2="1" y2="1"><stop stop-color="#52cba2"/><stop offset=".55" stop-color="#008358"/><stop offset="1" stop-color="#00523f"/></linearGradient>
<linearGradient id="dark" x1="0" y1="0" x2="1" y2="1"><stop stop-color="#00875c"/><stop offset="1" stop-color="#003f36"/></linearGradient>
<linearGradient id="mint" x1="0" y1="0" x2="1" y2="1"><stop stop-color="#f1fffa"/><stop offset="1" stop-color="#bceee0"/></linearGradient>
<linearGradient id="soft" x1="0" y1="0" x2="1" y2="1"><stop stop-color="#b9f1de"/><stop offset="1" stop-color="#39ba90"/></linearGradient>
<linearGradient id="facet" x1="0" y1="0" x2="1" y2="1"><stop stop-color="#009365"/><stop offset="1" stop-color="#00b078"/></linearGradient>
<linearGradient id="screen" x1="0" y1="0" x2="1" y2="1"><stop stop-color="#ffffff"/><stop offset="1" stop-color="#d5faed"/></linearGradient>
</defs><g stroke-linejoin="round"><path d="M43 80 Q43 64 58 54 L121 18 L121 172 L43 172Z" fill="url(#mint)" /><rect x="76" y="62" width="65" height="111" rx="8" fill="#073d34"/><rect x="80" y="67" width="57" height="101" rx="5" fill="url(#screen)"/><rect x="99" y="70" width="19" height="3" rx="1.5" fill="#c4eadd"/><polygon points="80,151 173,86 143,153 80,168" fill="url(#g)" /><polygon points="80,151 173,86 114,140" fill="url(#mint)" /><polygon points="114,140 173,86 143,153" fill="url(#facet)" /><polygon points="80,151 114,140 80,168" fill="url(#dark)" /></g></svg>