<svg xmlns="http://www.w3.org/2000/svg" width="200" height="200" viewBox="0 0 200 200" role="img" aria-label="JADE 06_desktop_apps origami service icon"><defs>
<linearGradient id="g" x1="0" y1="0" x2="1" y2="1"><stop stop-color="#50A687"/><stop offset=".55" stop-color="#107D58"/><stop offset="1" stop-color="#07513F"/></linearGradient>
<linearGradient id="dark" x1="0" y1="0" x2="1" y2="1"><stop stop-color="#107D58"/><stop offset="1" stop-color="#152E27"/></linearGradient>
<linearGradient id="mint" x1="0" y1="0" x2="1" y2="1"><stop stop-color="#FAFBFA"/><stop offset="1" stop-color="#9EB4AD"/></linearGradient>
<linearGradient id="soft" x1="0" y1="0" x2="1" y2="1"><stop stop-color="#9EB4AD"/><stop offset="1" stop-color="#50A687"/></linearGradient>
<linearGradient id="facet" x1="0" y1="0" x2="1" y2="1"><stop stop-color="#107D58"/><stop offset="1" stop-color="#18A77B"/></linearGradient>
<linearGradient id="screen" x1="0" y1="0" x2="1" y2="1"><stop stop-color="#FAFBFA"/><stop offset="1" stop-color="#9EB4AD"/></linearGradient>
</defs><g stroke-linejoin="round"><path d="M24 71 L74 55 L157 20 L157 147 L24 147Z" fill="url(#mint)" /><polygon points="15,72 154,66 154,139 15,139" fill="url(#g)" /><polygon points="15,72 154,66 90,112 15,139" fill="url(#facet)" /><polygon points="15,139 90,112 154,66 113,139" fill="url(#dark)" /><polygon points="113,139 154,66 154,139" fill="url(#soft)" /><polygon points="76,139 96,139 96,164 76,164" fill="url(#dark)" /><polygon points="62,164 111,164 126,174 47,174" fill="url(#dark)" /></g></svg>